<svg width="30" height="12" viewBox="0 0 30 12" fill="none" xmlns="http://www.w3.org/2000/svg">
<path d="M1 6.75C0.585786 6.75 0.25 6.41421 0.25 6C0.25 5.58579 0.585786 5.25 1 5.25L1 6.75ZM29.5303 5.46967C29.8232 5.76256 29.8232 6.23744 29.5303 6.53033L24.7574 11.3033C24.4645 11.5962 23.9896 11.5962 23.6967 11.3033C23.4038 11.0104 23.4038 10.5355 23.6967 10.2426L27.9393 6L23.6967 1.75736C23.4038 1.46447 23.4038 0.989593 23.6967 0.696699C23.9896 0.403806 24.4645 0.403806 24.7574 0.696699L29.5303 5.46967ZM1 5.25L29 5.25V6.75L1 6.75L1 5.25Z" fill="#1D1F26"/>
</svg>
