<svg width="30" height="12" viewBox="0 0 30 12" fill="none" xmlns="http://www.w3.org/2000/svg">
<path d="M1 6.42969C0.585786 6.42969 0.25 6.0939 0.25 5.67969C0.25 5.26547 0.585786 4.92969 1 4.92969L1 6.42969ZM29.5303 5.14936C29.8232 5.44225 29.8232 5.91712 29.5303 6.21002L24.7574 10.983C24.4645 11.2759 23.9896 11.2759 23.6967 10.983C23.4038 10.6901 23.4038 10.2152 23.6967 9.92233L27.9393 5.67969L23.6967 1.43705C23.4038 1.14415 23.4038 0.66928 23.6967 0.376387C23.9896 0.0834932 24.4645 0.0834932 24.7574 0.376387L29.5303 5.14936ZM1 4.92969L29 4.92969V6.42969L1 6.42969L1 4.92969Z" fill="#6CBD50"/>
</svg>
