<svg width="29" height="29" viewBox="0 0 29 29" fill="none" xmlns="http://www.w3.org/2000/svg">
<path d="M27.6992 7.85449H20.4492" stroke="white" stroke-width="2" stroke-miterlimit="10" stroke-linecap="round" stroke-linejoin="round"/>
<path d="M7.24935 7.85449H2.41602" stroke="white" stroke-width="2" stroke-miterlimit="10" stroke-linecap="round" stroke-linejoin="round"/>
<path d="M12.0837 12.0833C14.4194 12.0833 16.3128 10.1899 16.3128 7.85417C16.3128 5.51846 14.4194 3.625 12.0837 3.625C9.74795 3.625 7.85449 5.51846 7.85449 7.85417C7.85449 10.1899 9.74795 12.0833 12.0837 12.0833Z" stroke="white" stroke-width="2" stroke-miterlimit="10" stroke-linecap="round" stroke-linejoin="round"/>
<path d="M27.6986 21.1455H22.8652" stroke="white" stroke-width="2" stroke-miterlimit="10" stroke-linecap="round" stroke-linejoin="round"/>
<path d="M9.66699 21.1455H2.41699" stroke="white" stroke-width="2" stroke-miterlimit="10" stroke-linecap="round" stroke-linejoin="round"/>
<path d="M18.0319 25.3753C20.3676 25.3753 22.2611 23.4819 22.2611 21.1462C22.2611 18.8105 20.3676 16.917 18.0319 16.917C15.6962 16.917 13.8027 18.8105 13.8027 21.1462C13.8027 23.4819 15.6962 25.3753 18.0319 25.3753Z" stroke="white" stroke-width="2" stroke-miterlimit="10" stroke-linecap="round" stroke-linejoin="round"/>
</svg>
