<svg width="45" height="48" viewBox="0 0 45 48" fill="none" xmlns="http://www.w3.org/2000/svg">
<g opacity="0.25" filter="url(#filter0_f_56_31487)">
<rect x="6.78125" y="22.5" width="30.655" height="19.1594" rx="9.5797" fill="url(#paint0_linear_56_31487)"/>
</g>
<rect x="5.85156" y="5.84985" width="33.2096" height="33.2096" rx="14" fill="url(#paint1_linear_56_31487)"/>
<g filter="url(#filter1_i_56_31487)">
<path d="M31.1249 18.1724C30.9187 17.3973 30.3088 16.7858 29.5328 16.5763C28.1297 16.2002 22.5 16.2002 22.5 16.2002C22.5 16.2002 16.8732 16.2002 15.4672 16.5763C14.6941 16.783 14.0842 17.3945 13.8751 18.1724C13.5 19.5791 13.5 22.516 13.5 22.516C13.5 22.516 13.5 25.4528 13.8751 26.8595C14.0813 27.6346 14.6912 28.2461 15.4672 28.4557C16.8732 28.8318 22.5 28.8318 22.5 28.8318C22.5 28.8318 28.1297 28.8318 29.5328 28.4557C30.3059 28.249 30.9158 27.6375 31.1249 26.8595C31.5 25.4528 31.5 22.516 31.5 22.516C31.5 22.516 31.5 19.5791 31.1249 18.1724Z" fill="white"/>
<path d="M20.7017 25.2232L25.3778 22.516L20.7017 19.8088V25.2232Z" fill="#FF0000"/>
</g>
<defs>
<filter id="filter0_f_56_31487" x="1.32125" y="17.04" width="41.5763" height="30.0794" filterUnits="userSpaceOnUse" color-interpolation-filters="sRGB">
<feFlood flood-opacity="0" result="BackgroundImageFix"/>
<feBlend mode="normal" in="SourceGraphic" in2="BackgroundImageFix" result="shape"/>
<feGaussianBlur stdDeviation="2.73" result="effect1_foregroundBlur_56_31487"/>
</filter>
<filter id="filter1_i_56_31487" x="12.1484" y="12.6001" width="20.25" height="20.75" filterUnits="userSpaceOnUse" color-interpolation-filters="sRGB">
<feFlood flood-opacity="0" result="BackgroundImageFix"/>
<feBlend mode="normal" in="SourceGraphic" in2="BackgroundImageFix" result="shape"/>
<feColorMatrix in="SourceAlpha" type="matrix" values="0 0 0 0 0 0 0 0 0 0 0 0 0 0 0 0 0 0 127 0" result="hardAlpha"/>
<feOffset dy="0.5"/>
<feGaussianBlur stdDeviation="1.25"/>
<feComposite in2="hardAlpha" operator="arithmetic" k2="-1" k3="1"/>
<feColorMatrix type="matrix" values="0 0 0 0 0 0 0 0 0 0 0 0 0 0 0 0 0 0 0.1 0"/>
<feBlend mode="normal" in2="shape" result="effect1_innerShadow_56_31487"/>
</filter>
<linearGradient id="paint0_linear_56_31487" x1="24.2274" y1="42.2308" x2="17.9789" y2="20.2069" gradientUnits="userSpaceOnUse">
<stop stop-color="#DB0505"/>
<stop offset="1" stop-color="#FF0000"/>
</linearGradient>
<linearGradient id="paint1_linear_56_31487" x1="24.7516" y1="40.0499" x2="9.22656" y2="5.84985" gradientUnits="userSpaceOnUse">
<stop stop-color="#DB0505"/>
<stop offset="1" stop-color="#FF0000"/>
</linearGradient>
</defs>
</svg>
