<svg width="45" height="48" viewBox="0 0 45 48" fill="none" xmlns="http://www.w3.org/2000/svg">
<g opacity="0.25" filter="url(#filter0_f_56_31486)">
<rect x="6.78125" y="22.5" width="30.655" height="19.1594" rx="9.5797" fill="url(#paint0_linear_56_31486)"/>
</g>
<rect x="5.85156" y="5.84985" width="33.2096" height="33.2096" rx="14" fill="url(#paint1_linear_56_31486)"/>
<g filter="url(#filter1_i_56_31486)">
<path d="M13.7051 21.4043C13.7051 21.4043 21.6661 17.8737 24.4271 16.6304C25.4855 16.1332 29.0748 14.5419 29.0748 14.5419C29.0748 14.5419 30.7315 13.8457 30.5934 15.5364C30.5473 16.2326 30.1792 18.6692 29.8111 21.3048C29.2589 25.0344 28.6607 29.112 28.6607 29.112C28.6607 29.112 28.5686 30.2557 27.7863 30.4546C27.0041 30.6535 25.7155 29.7585 25.4855 29.5595C25.3014 29.4104 22.0342 27.1726 20.8378 26.0786C20.5156 25.7803 20.1475 25.1836 20.8837 24.4874C22.5404 22.8464 24.5191 20.8076 25.7155 19.5147C26.2678 18.9179 26.82 17.5255 24.5191 19.2162C21.2519 21.6529 18.0307 23.9404 18.0307 23.9404C18.0307 23.9404 17.2944 24.4376 15.9139 23.9901C14.5334 23.5426 12.9228 22.9458 12.9228 22.9458C12.9228 22.9458 11.8184 22.1999 13.7051 21.4043Z" fill="white"/>
</g>
<defs>
<filter id="filter0_f_56_31486" x="1.32125" y="17.04" width="41.5763" height="30.0794" filterUnits="userSpaceOnUse" color-interpolation-filters="sRGB">
<feFlood flood-opacity="0" result="BackgroundImageFix"/>
<feBlend mode="normal" in="SourceGraphic" in2="BackgroundImageFix" result="shape"/>
<feGaussianBlur stdDeviation="2.73" result="effect1_foregroundBlur_56_31486"/>
</filter>
<filter id="filter1_i_56_31486" x="11.25" y="12.1499" width="20.25" height="20.75" filterUnits="userSpaceOnUse" color-interpolation-filters="sRGB">
<feFlood flood-opacity="0" result="BackgroundImageFix"/>
<feBlend mode="normal" in="SourceGraphic" in2="BackgroundImageFix" result="shape"/>
<feColorMatrix in="SourceAlpha" type="matrix" values="0 0 0 0 0 0 0 0 0 0 0 0 0 0 0 0 0 0 127 0" result="hardAlpha"/>
<feOffset dy="0.5"/>
<feGaussianBlur stdDeviation="1.25"/>
<feComposite in2="hardAlpha" operator="arithmetic" k2="-1" k3="1"/>
<feColorMatrix type="matrix" values="0 0 0 0 0 0 0 0 0 0 0 0 0 0 0 0 0 0 0.1 0"/>
<feBlend mode="normal" in2="shape" result="effect1_innerShadow_56_31486"/>
</filter>
<linearGradient id="paint0_linear_56_31486" x1="9.48125" y1="23.9279" x2="23.3587" y2="47.9369" gradientUnits="userSpaceOnUse">
<stop stop-color="#0088CC"/>
<stop offset="1" stop-color="#0083C5"/>
</linearGradient>
<linearGradient id="paint1_linear_56_31486" x1="8.77656" y1="8.32485" x2="36.4516" y2="38.2499" gradientUnits="userSpaceOnUse">
<stop stop-color="#0088CC"/>
<stop offset="1" stop-color="#0083C5"/>
</linearGradient>
</defs>
</svg>
