<svg width="45" height="48" viewBox="0 0 45 48" fill="none" xmlns="http://www.w3.org/2000/svg">
<g opacity="0.25" filter="url(#filter0_f_56_31488)">
<rect x="6.78125" y="22.5" width="30.655" height="19.1594" rx="9.5797" fill="url(#paint0_linear_56_31488)"/>
</g>
<rect x="5.85156" y="5.84985" width="33.2096" height="33.2096" rx="14" fill="url(#paint1_linear_56_31488)"/>
<g clip-path="url(#clip0_56_31488)" filter="url(#filter1_i_56_31488)">
<path fill-rule="evenodd" clip-rule="evenodd" d="M30.6377 18.679C30.7629 18.2876 30.6377 18 30.0422 18H28.073C27.5723 18 27.3415 18.2485 27.2163 18.5224C27.2163 18.5224 26.2149 20.8122 24.7963 22.2995C24.3373 22.73 24.1287 22.867 23.8783 22.867C23.7531 22.867 23.5719 22.73 23.5719 22.3386V18.679C23.5719 18.2093 23.4266 18 23.0093 18H19.9149C19.602 18 19.4138 18.218 19.4138 18.4246C19.4138 18.8699 20.1231 18.9725 20.1962 20.2251V22.9453C20.1962 23.5417 20.0814 23.6499 19.831 23.6499C19.1635 23.6499 17.5396 21.3499 16.5765 18.7181C16.3877 18.2066 16.1984 18 15.6952 18H13.7259C13.1633 18 13.0508 18.2485 13.0508 18.5224C13.0508 19.0117 13.7184 21.4384 16.1593 24.6479C17.7865 26.8398 20.0792 28.0279 22.1654 28.0279C23.4171 28.0279 23.572 27.764 23.572 27.3095V25.6529C23.572 25.1251 23.6906 25.0198 24.0869 25.0198C24.379 25.0198 24.8797 25.1567 26.048 26.2135C27.3832 27.466 27.6033 28.0279 28.3543 28.0279H30.3235C30.8862 28.0279 31.1675 27.764 31.0052 27.2432C30.8276 26.7242 30.1901 25.9711 29.3443 25.0785C28.8853 24.5696 28.1968 24.0217 27.9882 23.7477C27.6961 23.3954 27.7796 23.2388 27.9882 22.9257C27.9882 22.9257 30.3874 19.7554 30.6377 18.679Z" fill="white"/>
</g>
<defs>
<filter id="filter0_f_56_31488" x="1.32125" y="17.04" width="41.5763" height="30.0794" filterUnits="userSpaceOnUse" color-interpolation-filters="sRGB">
<feFlood flood-opacity="0" result="BackgroundImageFix"/>
<feBlend mode="normal" in="SourceGraphic" in2="BackgroundImageFix" result="shape"/>
<feGaussianBlur stdDeviation="2.73" result="effect1_foregroundBlur_56_31488"/>
</filter>
<filter id="filter1_i_56_31488" x="11.6992" y="12.1499" width="20.25" height="20.75" filterUnits="userSpaceOnUse" color-interpolation-filters="sRGB">
<feFlood flood-opacity="0" result="BackgroundImageFix"/>
<feBlend mode="normal" in="SourceGraphic" in2="BackgroundImageFix" result="shape"/>
<feColorMatrix in="SourceAlpha" type="matrix" values="0 0 0 0 0 0 0 0 0 0 0 0 0 0 0 0 0 0 127 0" result="hardAlpha"/>
<feOffset dy="0.5"/>
<feGaussianBlur stdDeviation="1.25"/>
<feComposite in2="hardAlpha" operator="arithmetic" k2="-1" k3="1"/>
<feColorMatrix type="matrix" values="0 0 0 0 0 0 0 0 0 0 0 0 0 0 0 0 0 0 0.1 0"/>
<feBlend mode="normal" in2="shape" result="effect1_innerShadow_56_31488"/>
</filter>
<linearGradient id="paint0_linear_56_31488" x1="24.2274" y1="42.2308" x2="17.9789" y2="20.2069" gradientUnits="userSpaceOnUse">
<stop offset="0.0729167" stop-color="#1568C8"/>
<stop offset="0.927083" stop-color="#3F98FF"/>
</linearGradient>
<linearGradient id="paint1_linear_56_31488" x1="24.7516" y1="40.0499" x2="9.22656" y2="5.84985" gradientUnits="userSpaceOnUse">
<stop offset="0.0729167" stop-color="#1568C8"/>
<stop offset="0.927083" stop-color="#3F98FF"/>
</linearGradient>
<clipPath id="clip0_56_31488">
<rect width="20.25" height="20.25" fill="white" transform="translate(11.6992 12.1499)"/>
</clipPath>
</defs>
</svg>
