<svg width="27" height="25" viewBox="0 0 27 25" fill="none" xmlns="http://www.w3.org/2000/svg">
<path d="M24.9179 2.95499C24.2582 2.29495 23.4749 1.77136 22.6127 1.41414C21.7506 1.05691 20.8265 0.873047 19.8933 0.873047C18.9601 0.873047 18.0361 1.05691 17.1739 1.41414C16.3118 1.77136 15.5285 2.29495 14.8688 2.95499L13.4996 4.32415L12.1304 2.95499C10.7978 1.62239 8.99042 0.873738 7.10583 0.873738C5.22125 0.873738 3.41385 1.62239 2.08125 2.95499C0.748648 4.28759 1.40412e-08 6.09499 0 7.97957C-1.40412e-08 9.86416 0.748648 11.6716 2.08125 13.0042L3.45042 14.3733L13.4996 24.4225L23.5487 14.3733L24.9179 13.0042C25.578 12.3444 26.1015 11.5611 26.4588 10.699C26.816 9.83685 26.9999 8.91278 26.9999 7.97957C26.9999 7.04636 26.816 6.12229 26.4588 5.26015C26.1015 4.39802 25.578 3.61471 24.9179 2.95499Z" fill="#D9D9D9"/>
</svg>
