<svg width="65" height="40" viewBox="0 0 65 40" fill="none" xmlns="http://www.w3.org/2000/svg">
<path d="M65 19.9277C65 30.6277 56.3 39.4277 45.5 39.4277C34.8 39.4277 26 30.6277 26 19.9277C26 9.22773 34.7 0.427734 45.4 0.427734C56.3 0.427734 65 9.22773 65 19.9277Z" fill="#9BA8A8"/>
<path d="M38.9 20.0277C38.9 18.6277 38.7 17.2277 38.5 15.9277H26.5C26.6 15.2277 26.8 14.6277 27 13.8277H37.7C37.5 13.1277 37.2 12.4277 36.9 11.7277H27.8C28.1 11.0277 28.5 10.4277 28.9 9.62773H35.8C35.4 8.92773 34.9 8.22773 34.3 7.52773H30.5C31.1 6.82773 31.7 6.22773 32.5 5.52773C29.1 2.32773 24.5 0.427734 19.4 0.427734C8.8 0.727734 0 9.22773 0 19.9277C0 30.6277 8.7 39.4277 19.5 39.4277C24.6 39.4277 29.1 37.4277 32.6 34.3277C33.3 33.7277 33.9 33.0277 34.6 32.2277H30.6C30.1 31.6277 29.6 30.9277 29.2 30.2277H36C36.4 29.6277 36.8 28.9277 37.1 28.1277H28C27.7 27.5277 27.4 26.8277 27.2 26.0277H37.9C38.5 24.2277 38.9 22.2277 38.9 20.0277Z" fill="#91959B"/>
<path d="M26.4 24.9281L26.7 23.1281C26.6 23.1281 26.4 23.2281 26.2 23.2281C25.5 23.2281 25.4 22.8281 25.5 22.6281L26.1 19.0281H27.2L27.5 17.0281H26.5L26.7 15.8281H24.6C24.6 15.8281 23.4 22.6281 23.4 23.4281C23.4 24.6281 24.1 25.2281 25.1 25.2281C25.7 25.2281 26.2 25.0281 26.4 24.9281Z" fill="white"/>
<path d="M27.1 21.6274C27.1 24.5274 29.1 25.2274 30.7 25.2274C32.2 25.2274 32.9 24.9274 32.9 24.9274L33.3 22.9274C33.3 22.9274 32.2 23.4274 31.1 23.4274C28.8 23.4274 29.2 21.7274 29.2 21.7274H33.4C33.4 21.7274 33.7 20.4274 33.7 19.8274C33.7 18.5274 33 16.8274 30.7 16.8274C28.7 16.7274 27.1 19.0274 27.1 21.6274ZM30.7 18.6274C31.8 18.6274 31.6 19.9274 31.6 20.0274H29.3C29.4 19.9274 29.6 18.6274 30.7 18.6274Z" fill="white"/>
<path d="M43.8 24.9281L44.2 22.6281C44.2 22.6281 43.2 23.1281 42.4 23.1281C41 23.1281 40.3 22.0281 40.3 20.7281C40.3 18.2281 41.5 16.9281 43 16.9281C44 16.9281 44.9 17.5281 44.9 17.5281L45.2 15.3281C45.2 15.3281 44 14.8281 42.8 14.8281C40.4 14.8281 38.1 16.9281 38.1 20.8281C38.1 23.4281 39.3 25.1281 41.8 25.1281C42.7 25.2281 43.8 24.9281 43.8 24.9281Z" fill="white"/>
<path d="M15.1 16.7285C13.7 16.7285 12.6 17.1285 12.6 17.1285L12.3 18.9285C12.3 18.9285 13.2 18.5285 14.6 18.5285C15.3 18.5285 15.9 18.6285 15.9 19.2285C15.9 19.6285 15.8 19.7285 15.8 19.7285H14.9C13.1 19.7285 11.2 20.4285 11.2 22.8285C11.2 24.7285 12.4 25.1285 13.2 25.1285C14.6 25.1285 15.3 24.2285 15.4 24.2285L15.3 25.0285H17L17.8 19.3285C17.8 16.8285 15.8 16.7285 15.1 16.7285ZM15.5 21.3285C15.5 21.6285 15.3 23.3285 14.1 23.3285C13.5 23.3285 13.3 22.8285 13.3 22.5285C13.3 22.0285 13.6 21.3285 15.2 21.3285C15.4 21.3285 15.5 21.3285 15.5 21.3285Z" fill="white"/>
<path d="M19.8 25.127C20.3 25.127 22.9 25.227 22.9 22.427C22.9 19.827 20.4 20.327 20.4 19.327C20.4 18.827 20.8 18.627 21.5 18.627C21.8 18.627 22.9 18.727 22.9 18.727L23.2001 16.827C23.2001 16.827 22.5001 16.627 21.2001 16.627C19.7001 16.627 18.1 17.227 18.1 19.327C18.1 21.727 20.7001 21.527 20.7001 22.427C20.7001 23.027 20 23.127 19.5 23.127C18.6 23.127 17.6 22.827 17.6 22.827L17.3 24.727C17.5 24.927 18.1 25.127 19.8 25.127Z" fill="white"/>
<path d="M61 15.127L60.6 17.927C60.6 17.927 59.8 16.927 58.6 16.927C56.7 16.927 55.1 19.227 55.1 21.927C55.1 23.627 55.9 25.327 57.7 25.327C58.9 25.327 59.7 24.527 59.7 24.527L59.6 25.227H61.7L63.2 15.327L61 15.127ZM60 20.527C60 21.627 59.5 23.127 58.3 23.127C57.6 23.127 57.2 22.527 57.2 21.427C57.2 19.727 57.9 18.727 58.9 18.727C59.6 18.827 60 19.327 60 20.527Z" fill="white"/>
<path d="M3.80005 25.027L5.00005 17.627L5.20005 25.027H6.60005L9.30005 17.627L8.20005 25.027H10.4L12.1 15.127H8.70005L6.60005 21.227L6.50005 15.127H3.50005L1.80005 25.027H3.80005Z" fill="white"/>
<path d="M35.8 25.0277C36.4 21.6277 36.5 18.8277 38 19.3277C38.2 18.0277 38.5 17.4277 38.7 16.9277H38.3C37.4 16.9277 36.6 18.1277 36.6 18.1277L36.8 17.0277H34.8L33.5 25.0277H35.8Z" fill="white"/>
<path d="M48.5999 16.7285C47.1999 16.7285 46.0999 17.1285 46.0999 17.1285L45.7999 18.9285C45.7999 18.9285 46.6999 18.5285 48.0999 18.5285C48.7999 18.5285 49.4 18.6285 49.4 19.2285C49.4 19.6285 49.2999 19.7285 49.2999 19.7285H48.4C46.6 19.7285 44.7 20.4285 44.7 22.8285C44.7 24.7285 45.9 25.1285 46.7 25.1285C48.1 25.1285 48.8 24.2285 48.9 24.2285L48.7999 25.0285H50.7L51.5 19.3285C51.5 16.8285 49.2999 16.7285 48.5999 16.7285ZM49.0999 21.3285C49.0999 21.6285 48.9 23.3285 47.7 23.3285C47.1 23.3285 46.9 22.8285 46.9 22.5285C46.9 22.0285 47.1999 21.3285 48.7999 21.3285C48.9999 21.3285 48.9999 21.3285 49.0999 21.3285Z" fill="white"/>
<path d="M53.1 25.0277C53.7 21.6277 53.8 18.8277 55.3 19.3277C55.5 18.0277 55.8 17.4277 56 16.9277H55.6C54.7 16.9277 53.9001 18.1277 53.9001 18.1277L54.1 17.0277H52.1L50.8 25.0277H53.1Z" fill="white"/>
</svg>
