<svg width="54" height="16" viewBox="0 0 54 16" fill="none" xmlns="http://www.w3.org/2000/svg">
<path d="M48.4001 0.177734H38.1001C38.7001 3.57773 42.0001 6.77774 45.6001 6.77774H53.8001C53.9001 6.47774 53.9001 5.97773 53.9001 5.67773C53.9001 2.67773 51.4001 0.177734 48.4001 0.177734Z" fill="#91959B"/>
<path d="M39 7.37695V15.6769H44V11.2769H48.4C50.8 11.2769 52.9 9.57695 53.6 7.37695H39Z" fill="#9BA8A8"/>
<path d="M21.4 0.177734V15.5777H25.8C25.8 15.5777 26.9 15.5777 27.5 14.4777C30.5 8.57774 31.4 6.77774 31.4 6.77774H32V15.5777H37V0.177734H32.6C32.6 0.177734 31.5 0.27774 30.9 1.27774C28.4 6.37774 27 8.97774 27 8.97774H26.4V0.177734H21.4Z" fill="#9BA8A8"/>
<path d="M0.400024 15.6773V0.277344H5.40002C5.40002 0.277344 6.80004 0.277341 7.60004 2.47734C9.60004 8.27734 9.80005 9.07735 9.80005 9.07735C9.80005 9.07735 10.2 7.67734 12 2.47734C12.8 0.277341 14.2 0.277344 14.2 0.277344H19.2V15.6773H14.2V7.37735H13.6L10.8 15.6773H8.60004L5.80005 7.37735H5.20004V15.6773H0.400024Z" fill="#9BA8A8"/>
</svg>
