<svg width="42" height="43" viewBox="0 0 42 43" fill="none" xmlns="http://www.w3.org/2000/svg">
<path d="M32.5656 27.3556C33.2656 27.6556 33.5656 28.6556 33.5656 29.1556C33.6656 29.9556 33.4656 30.3556 33.1656 30.3556C32.8656 30.3556 32.4656 30.0556 32.0656 29.3556C31.6656 28.6556 31.4656 27.9556 31.6656 27.5556C31.9656 27.3556 32.2656 27.2556 32.5656 27.3556Z" fill="#9BA8A8"/>
<path d="M28.4657 30.4551C28.8657 30.4551 29.3657 30.6551 29.8657 31.0551C30.6657 31.7551 30.9657 32.5551 30.5657 33.1551C30.3657 33.4551 29.8657 33.6551 29.4657 33.6551C28.9657 33.6551 28.4657 33.4551 28.1657 33.1551C27.3657 32.4551 27.1657 31.4551 27.6657 30.8551C27.7657 30.6551 28.0657 30.4551 28.4657 30.4551Z" fill="#9BA8A8"/>
<path d="M18.9656 38.3555C8.56565 38.3555 0.165649 29.9555 0.165649 19.6555C0.165649 9.35547 8.56565 0.855469 18.9656 0.855469C29.3656 0.855469 37.7656 9.25547 37.7656 19.6555C37.7656 23.1555 36.7656 26.4555 35.1656 29.2555C35.0657 29.3555 34.9656 29.3555 34.9656 29.1555C34.2656 24.5555 31.4656 22.0555 27.4656 21.2555C27.0656 21.1555 27.0656 20.9555 27.5656 20.9555C28.8656 20.8555 30.5656 20.8555 31.5656 21.0555C31.6656 20.5555 31.6656 20.0555 31.6656 19.6555C31.6656 12.8555 26.0657 7.25547 19.2656 7.25547C12.4656 7.25547 6.86565 12.8555 6.86565 19.6555C6.86565 26.4555 12.4656 32.0555 19.2656 32.0555H19.8657C19.6656 30.9555 19.5656 29.8555 19.6656 28.6555C19.6656 27.8555 19.8657 27.7555 20.1656 28.3555C21.8657 31.3555 24.3657 33.9555 29.1656 35.0555C33.0657 35.9555 36.9656 36.9555 41.2656 42.2555C41.6656 42.7555 41.0657 43.2555 40.6656 42.8555C36.3657 39.0555 32.4656 37.7555 28.8657 37.7555C24.3657 37.8555 21.6656 38.3555 18.9656 38.3555Z" fill="#9BA8A8"/>
</svg>
