<svg width="42" height="42" viewBox="0 0 42 42" fill="none" xmlns="http://www.w3.org/2000/svg">
<path d="M23.2976 13.627H18.3976V20.5269H23.2976C24.3976 20.5269 25.2976 20.227 25.8976 19.627C26.5976 19.027 26.8976 18.127 26.8976 17.127C26.8976 16.127 26.5976 15.327 25.8976 14.627C25.2976 14.027 24.3976 13.627 23.2976 13.627Z" fill="#9BA8A8"/>
<path d="M20.7976 0.527344C9.49758 0.527344 0.397583 9.62734 0.397583 20.9273C0.397583 32.2273 9.49758 41.3274 20.7976 41.3274C32.0976 41.3274 41.1976 32.2273 41.1976 20.9273C41.0976 9.62734 31.9976 0.527344 20.7976 0.527344ZM28.5976 21.9273C27.2976 23.1273 25.5976 23.8274 23.5976 23.8274H18.3976V25.6273H26.0976C26.1976 25.6273 26.3976 25.6274 26.4976 25.7274C26.5976 25.8274 26.5976 25.9273 26.5976 26.1273V28.1273C26.5976 28.2274 26.5976 28.4273 26.4976 28.5273C26.3976 28.6273 26.2976 28.6273 26.0976 28.6273H18.3976V31.5273C18.3976 31.6273 18.3976 31.8273 18.2976 31.9273C18.1976 32.0273 18.0976 32.0273 17.9976 32.0273H15.3976C15.2976 32.0273 15.0976 32.0273 14.9976 31.9273C14.8976 31.8273 14.8976 31.7273 14.8976 31.5273V28.6273H11.4976C11.3976 28.6273 11.1976 28.6273 11.0976 28.5273C10.9976 28.4273 10.9976 28.3274 10.9976 28.1273V26.1273C10.9976 26.0273 10.9976 25.8274 11.0976 25.7274C11.1976 25.6274 11.2976 25.6273 11.4976 25.6273H14.8976V23.8274H11.4976C11.3976 23.8274 11.1976 23.8274 11.0976 23.7274C10.9976 23.6274 10.9976 23.5274 10.9976 23.3274V21.0273C10.9976 20.9273 10.9976 20.8274 11.0976 20.7274C11.1976 20.6274 11.2976 20.6273 11.4976 20.6273H14.8976V11.0273C14.8976 10.9273 14.8976 10.7274 14.9976 10.6273C15.0976 10.5273 15.1976 10.5273 15.3976 10.5273H23.6976C25.6976 10.5273 27.3976 11.1274 28.6976 12.4274C29.9976 13.6274 30.5976 15.3274 30.5976 17.2274C30.5976 19.0274 29.8976 20.6273 28.5976 21.9273Z" fill="#9BA8A8"/>
</svg>
