<svg width="69" height="22" viewBox="0 0 69 22" fill="none" xmlns="http://www.w3.org/2000/svg">
<path d="M63.8 0.728516H59.5C58.2 0.728516 57.2 1.12852 56.6 2.42852L48.4 21.1285H54.2C54.2 21.1285 55.2 18.6285 55.4 18.0285C56 18.0285 61.7 18.0285 62.5 18.0285C62.7 18.7285 63.2 21.0285 63.2 21.0285H68.4L63.8 0.728516ZM57 13.8285C57.5 12.6285 59.2 8.12852 59.2 8.12852C59.2 8.22852 59.7 6.92852 59.9 6.22852L60.3 8.02852C60.3 8.02852 61.4 12.9285 61.6 13.9285H57V13.8285Z" fill="#9BA8A8"/>
<path d="M48.8 14.4277C48.8 18.6277 45 21.4277 39.1 21.4277C36.6 21.4277 34.2 20.9277 32.9 20.3277L33.7 15.7277L34.4 16.0277C36.2 16.8277 37.4 17.1277 39.6 17.1277C41.2 17.1277 42.9 16.5277 42.9 15.1277C42.9 14.2277 42.2 13.6277 40 12.6277C37.9 11.6277 35.1 10.0277 35.1 7.12773C35.1 3.12773 39 0.427734 44.5 0.427734C46.6 0.427734 48.4 0.827734 49.5 1.32773L48.7 5.72773L48.3 5.32773C47.3 4.92773 46 4.52773 44.1 4.52773C42 4.62773 41 5.52773 41 6.32773C41 7.22773 42.2 7.92773 44.1 8.82773C47.3 10.3277 48.8 12.0277 48.8 14.4277Z" fill="#9BA8A8"/>
<path d="M0 0.927344L0.1 0.527344H8.7C9.9 0.527344 10.8 0.927344 11.1 2.22734L13 11.2273C11.1 6.42734 6.7 2.52734 0 0.927344Z" fill="#7B7B7B"/>
<path d="M25.1 0.726953L16.4 21.027H10.5L5.5 4.02695C9.1 6.32695 12.1 9.92695 13.2 12.427L13.8 14.527L19.2 0.626953H25.1V0.726953Z" fill="#9BA8A8"/>
<path d="M27.4 0.626953H32.9L29.4 21.027H23.9L27.4 0.626953Z" fill="#9BA8A8"/>
</svg>
