<svg width="42" height="39" viewBox="0 0 42 39" fill="none" xmlns="http://www.w3.org/2000/svg">
<g clip-path="url(#clip0_486_12245)">
<path fill-rule="evenodd" clip-rule="evenodd" d="M41.0375 9.66648C41.328 8.77923 41.0375 8.12598 39.6463 8.12598H35.0525C33.8835 8.12598 33.3445 8.68985 33.0522 9.31223C33.0522 9.31223 30.716 14.5057 27.4067 17.8792C26.3358 18.8575 25.8493 19.1679 25.2648 19.1679C24.9725 19.1679 24.5333 18.8575 24.5333 17.9686V9.66648C24.5333 8.60048 24.2113 8.12598 23.2383 8.12598H16.0142C15.2845 8.12598 14.8452 8.61998 14.8452 9.0896C14.8452 10.0987 16.5007 10.3327 16.6705 13.1732V19.345C16.6705 20.6986 16.4028 20.944 15.8182 20.944C14.2607 20.944 10.472 15.7261 8.22325 9.75585C7.7875 8.59398 7.3465 8.12598 6.17225 8.12598H1.575C0.2625 8.12598 0 8.68985 0 9.31223C0 10.4205 1.5575 15.926 7.25375 23.2076C11.0513 28.1801 16.3975 30.876 21.2677 30.876C24.1885 30.876 24.549 30.278 24.549 29.2461V25.4875C24.549 24.2899 24.8255 24.051 25.7513 24.051C26.4338 24.051 27.601 24.363 30.3275 26.7598C33.4425 29.602 33.9552 30.876 35.7088 30.876H40.3025C41.615 30.876 42.273 30.278 41.895 29.095C41.4785 27.9185 39.991 26.2106 38.0187 24.1842C36.9478 23.0305 35.3413 21.7874 34.853 21.165C34.1722 20.3671 34.3665 20.0112 34.853 19.3011C34.853 19.3011 40.453 12.1089 41.0357 9.66648H41.0375Z" fill="#6CBD50"/>
</g>
<defs>
<clipPath id="clip0_486_12245">
<rect width="42" height="39" fill="white"/>
</clipPath>
</defs>
</svg>
