<svg width="43" height="42" viewBox="0 0 43 42" fill="none" xmlns="http://www.w3.org/2000/svg">
<path d="M26.7656 20.1285L22.2656 15.2285L17.2656 19.6285L21.7656 24.6285L26.7656 20.1285Z" fill="#9BA8A8"/>
<path d="M13.6656 11.2285L18.1656 16.1285L23.1656 11.7285L18.6656 6.82852L13.6656 11.2285Z" fill="#9BA8A8"/>
<path d="M30.2656 28.6285L25.7656 23.7285L20.7656 28.2285L25.2656 33.1285L30.2656 28.6285Z" fill="#9BA8A8"/>
<path d="M25.0656 36.8285L16.8657 27.7285L19.1656 25.7285L13.3656 19.3285L15.6656 17.3285L9.86565 10.9285L18.9656 2.82852L21.8657 5.92852L26.8657 1.62852L29.7656 4.62852L31.6656 2.92852C31.2656 2.72852 30.7656 2.42852 30.3657 2.22852C27.4657 1.02852 24.3656 0.228516 21.0656 0.228516C9.56565 0.228516 0.165649 9.52852 0.165649 20.9285C0.165649 32.3285 9.56565 41.6285 21.1656 41.6285C24.9656 41.6285 28.4656 40.6285 31.4656 38.9285C32.4656 38.3285 33.3656 37.7285 34.2656 37.1285L30.0656 32.4285L25.0656 36.8285Z" fill="#9BA8A8"/>
<path d="M22.8657 8.82852L26.1656 12.5285L29.9656 9.22852L26.5656 5.52852L22.8657 8.82852Z" fill="#9BA8A8"/>
<path d="M33.3657 16.6285L29.9656 12.9285L26.2656 16.3285L29.6656 19.9285L33.3657 16.6285Z" fill="#9BA8A8"/>
<path d="M36.5657 24.4285L33.1656 20.7285L29.4656 24.0285L32.8657 27.8285L36.5657 24.4285Z" fill="#9BA8A8"/>
<path d="M36.7656 12.2285L34.2656 14.4285L36.5657 16.9285L38.9656 14.7285L36.7656 12.2285Z" fill="#9BA8A8"/>
<path d="M37.4656 21.7285L39.6656 24.2285L42.1656 22.0285L39.8657 19.5285L37.4656 21.7285Z" fill="#9BA8A8"/>
<path d="M31.0656 7.12852L33.3657 9.62852L35.7656 7.42852L33.5657 4.92852L31.0656 7.12852Z" fill="#9BA8A8"/>
<path d="M32.7656 31.5285L36.1656 35.2285L39.8657 31.9285L36.4656 28.2285L32.7656 31.5285Z" fill="#9BA8A8"/>
</svg>
