<svg width="38" height="38" viewBox="0 0 38 38" fill="none" xmlns="http://www.w3.org/2000/svg">
<path d="M15.8334 9.50001H22.1667C25.3334 9.50001 25.3334 7.91667 25.3334 6.33334C25.3334 3.16667 23.75 3.16667 22.1667 3.16667H15.8334C14.25 3.16667 12.6667 3.16667 12.6667 6.33334C12.6667 9.50001 14.25 9.50001 15.8334 9.50001Z" stroke="white" stroke-opacity="0.9" stroke-width="2.125" stroke-miterlimit="10" stroke-linecap="round" stroke-linejoin="round"/>
<path d="M25.3333 6.36504C30.6058 6.65004 33.25 8.59754 33.25 15.8334V25.3334C33.25 31.6667 31.6667 34.8334 23.75 34.8334H14.25C6.33333 34.8334 4.75 31.6667 4.75 25.3334V15.8334C4.75 8.61337 7.39417 6.65004 12.6667 6.36504" fill="white" fill-opacity="0.89"/>
<path d="M25.3333 6.36504C30.6058 6.65004 33.25 8.59754 33.25 15.8334V25.3334C33.25 31.6667 31.6667 34.8334 23.75 34.8334H14.25C6.33333 34.8334 4.75 31.6667 4.75 25.3334V15.8334C4.75 8.61337 7.39417 6.65004 12.6667 6.36504" stroke="white" stroke-opacity="0.9" stroke-width="2.125" stroke-miterlimit="10" stroke-linecap="round" stroke-linejoin="round"/>
<path d="M14.7407 23.2749L17.1157 25.6499L23.4491 19.3166" stroke="#7AC361" stroke-width="2.125" stroke-linecap="round" stroke-linejoin="round"/>
</svg>
