<svg width="40" height="37" viewBox="0 0 40 37" fill="none" xmlns="http://www.w3.org/2000/svg">
<path d="M39.1 15.5927C38.9 14.3927 37.8 13.5927 36.3 13.5927C35.8 13.5927 35.4 13.5927 34.9 13.5927C34 13.4927 33.8 13.7927 33.8 14.4927C33.8 17.9927 33.8 21.3927 33.8 24.8927C33.8 26.6927 32 28.5927 29.9 28.9927C23.3 30.4927 16.7 31.8927 10.1 33.3927C9.40001 33.5927 8.60002 33.5927 7.80002 33.5927C7.50002 33.5927 7.00002 33.3927 6.90002 33.0927C6.80002 32.8927 7.10002 32.4927 7.30002 32.2927C7.60002 32.0927 8.00002 31.8927 8.40002 31.6927C9.60002 31.2927 10.9 30.8927 12.1 30.4927C17 28.8927 21.9 27.2927 26.8 25.5927C29 24.8927 30.2 23.3927 30.2 21.4927C30.3 15.4927 30.2 9.39266 30.2 3.39266C30.2 2.39266 29.7 1.59267 28.6 1.19267C27.3 0.692667 26.1 1.09266 25 1.59266C18 4.89266 11.1 8.19267 4.10001 11.4927C2.10001 12.4927 0.900024 13.8927 0.900024 15.8927C0.900024 21.5927 0.900024 27.2927 0.900024 32.9927C0.900024 33.2927 0.9 33.5927 1 33.7927C1.7 35.6927 3.50002 36.8927 5.90002 36.8927C10.8 36.8927 15.7 36.8927 20.6 36.8927C25.5 36.8927 30.3 36.8927 35.2 36.8927C36.3 36.8927 37.2 36.6927 38 35.9927C39 35.1927 39 34.0927 39 33.0927C39 27.4927 39 21.9927 39 16.3927C39.2 16.2927 39.2 15.8927 39.1 15.5927ZM18.7 13.7927C19.2 12.4927 20.3 11.6927 21.9 11.4927C23 11.3927 23.9 11.9927 24.1 12.9927C24.3 14.4927 22.5 16.2927 20.6 16.2927C19.1 16.2927 18.2 15.1927 18.7 13.7927Z" fill="#9BA8A8"/>
</svg>
