<svg width="385" height="265" viewBox="0 0 385 265" fill="none" xmlns="http://www.w3.org/2000/svg">
<path fill-rule="evenodd" clip-rule="evenodd" d="M0 16C0 7.16344 7.16344 0 16 0H369C377.837 0 385 7.16344 385 16V113C385 119.627 379.306 124.751 373.492 127.934C366.048 132.009 361 139.915 361 149C361 158.085 366.048 165.991 373.492 170.066C379.306 173.249 385 178.373 385 185V235C385 251.569 371.569 265 355 265H30C13.4315 265 0 251.569 0 235V184C0 177.373 5.69428 172.249 11.5077 169.066C18.9519 164.991 24 157.085 24 148C24 138.915 18.9519 131.009 11.5077 126.934C5.69428 123.751 0 118.627 0 112V16Z" fill="white"/>
</svg>
