<svg width="496" height="265" viewBox="0 0 496 265" fill="none" xmlns="http://www.w3.org/2000/svg">
<path fill-rule="evenodd" clip-rule="evenodd" d="M495.277 28.6092C497.169 13.6746 485.529 0.467559 470.476 0.467559L52.8515 0.467564C40.2591 0.467565 29.6322 9.8333 28.0497 22.3259L6.54856 192.067C6.54578 192.089 6.56286 192.108 6.58494 192.108V192.108C6.60703 192.108 6.62411 192.127 6.62133 192.149L1.07255 235.954C-0.819225 250.889 10.8204 264.096 25.8744 264.096L443.416 264.096C456.009 264.096 466.635 254.73 468.218 242.237L489.724 72.4558C489.724 72.4555 489.724 72.4553 489.724 72.4553V72.4553C489.724 72.4553 489.723 72.4551 489.723 72.4548L495.277 28.6092Z" fill="#6CBD50"/>
</svg>
