<svg width="502" height="268" viewBox="0 0 502 268" fill="none" xmlns="http://www.w3.org/2000/svg">
<path fill-rule="evenodd" clip-rule="evenodd" d="M403.905 28.5479C406.005 13.437 394.198 -0.0147206 378.943 0.107689L44.9902 2.78729C32.5893 2.88679 22.1357 12.0622 20.4287 24.3455L0.673107 166.509C-1.42676 181.62 10.3801 195.072 25.6357 194.95L68.8681 194.603C84.1237 194.48 95.9306 207.932 93.8307 223.043L91.7248 238.197C89.6392 253.206 101.278 266.605 116.431 266.638L456.168 267.394C468.693 267.422 479.306 258.177 480.995 245.767L500.862 99.8247C502.916 84.7357 491.118 71.3311 475.89 71.4533L426.803 71.8472C411.548 71.9696 399.741 58.5179 401.84 43.407L403.905 28.5479Z" fill="#E2E9E9"/>
</svg>
