<svg width="121" height="168" viewBox="0 0 121 168" fill="none" xmlns="http://www.w3.org/2000/svg">
<path d="M88.2919 44.037L82.5308 28.0785C82.6006 28.0533 82.6747 28.0421 82.7489 28.0455C82.8231 28.049 82.8959 28.067 82.9631 28.0985C83.0303 28.1301 83.0906 28.1745 83.1406 28.2294C83.1906 28.2842 83.2293 28.3483 83.2544 28.4181L88.6323 43.3145C88.6575 43.3842 88.6687 43.4583 88.6653 43.5323C88.6618 43.6064 88.6437 43.6791 88.6121 43.7462C88.5805 43.8133 88.536 43.8735 88.481 43.9234C88.4261 43.9733 88.3618 44.0119 88.2919 44.037Z" fill="#323232"/>
<path d="M10.4812 62.1016L6.77808 51.8428C6.70817 51.8679 6.64388 51.9065 6.58894 51.9565C6.534 52.0064 6.48947 52.0667 6.45788 52.1338C6.4263 52.2009 6.40829 52.2737 6.40489 52.3478C6.40149 52.4219 6.41275 52.4959 6.43805 52.5656L9.75773 61.7619C9.78287 61.8317 9.8215 61.8958 9.87148 61.9506C9.92145 62.0055 9.98177 62.0499 10.049 62.0815C10.1162 62.113 10.1889 62.131 10.2631 62.1345C10.3372 62.1379 10.4114 62.1267 10.4812 62.1016Z" fill="#2D2D2D"/>
<path d="M14.7697 73.9811L11.0664 63.7227C10.9965 63.7477 10.9322 63.7863 10.8773 63.8362C10.8223 63.8861 10.7777 63.9463 10.7461 64.0134C10.7145 64.0805 10.6965 64.1532 10.693 64.2273C10.6895 64.3014 10.7007 64.3754 10.726 64.4451L14.046 73.6416C14.0712 73.7114 14.1099 73.7755 14.1599 73.8303C14.2099 73.8851 14.2702 73.9296 14.3374 73.9611C14.4046 73.9926 14.4774 74.0106 14.5516 74.014C14.6257 74.0175 14.6999 74.0063 14.7697 73.9811Z" fill="#2D2D2D"/>
<path d="M64.0438 165.764L62.1785 166.435C58.8847 167.62 55.2544 167.45 52.086 165.963C48.9176 164.475 46.4706 161.793 45.2832 158.505L42.4982 150.79C36.0335 132.883 29.5689 114.976 23.1044 97.0685C17.828 82.453 12.5516 67.8375 7.27534 53.222C6.88772 52.1484 6.50009 51.0748 6.11247 50.001C6.01662 49.7215 6.02355 49.4172 6.13197 49.1423C6.24442 48.7708 6.24684 48.3747 6.13897 48.0018C5.44413 46.077 4.74917 44.1522 4.05408 42.2274C3.89748 41.8686 3.64153 41.5619 3.31635 41.3433C3.05604 41.1972 2.85567 40.9642 2.75035 40.6852C2.4812 39.9401 2.21216 39.1948 1.94326 38.4495C1.60422 37.5107 1.26525 36.5717 0.926341 35.6326C-0.260105 32.3442 -0.0898495 28.72 1.39972 25.5569C2.88929 22.3939 5.57619 19.9509 8.86958 18.7652L10.974 18.0081L33.8519 9.7765L55.999 1.8065L58.6879 0.838721C61.9817 -0.346356 65.6122 -0.176635 68.7806 1.31054C71.9491 2.79772 74.396 5.48054 75.5832 8.76885C75.9222 9.7079 76.2612 10.6469 76.6001 11.5858L81.9336 26.3577L97.7626 70.2042C104.227 88.1121 110.692 106.02 117.157 123.927L119.942 131.641C121.129 134.93 120.959 138.554 119.469 141.717C117.979 144.881 115.292 147.324 111.998 148.509L109.309 149.476L87.0879 157.471L64.0442 165.763C63.981 165.587 63.9177 165.412 63.8542 165.238C63.7882 165.055 63.7221 164.871 63.6559 164.688L63.4628 164.153C63.3996 163.978 63.3363 163.803 63.273 163.628C63.205 163.44 63.137 163.251 63.0688 163.062C63.0127 162.907 62.9564 162.751 62.9 162.595C62.8391 162.426 62.778 162.257 62.7167 162.087C62.6591 161.928 62.6017 161.769 62.5444 161.61L85.588 153.318L107.81 145.323L111.132 144.128C113.264 143.361 115.003 141.78 115.967 139.733C116.931 137.685 117.041 135.34 116.273 133.212C115.318 130.567 114.363 127.922 113.408 125.277C106.943 107.369 100.479 89.4614 94.0143 71.5541C88.7381 56.9386 83.4618 42.323 78.1852 27.7075L72.8518 12.9352C72.4521 11.8285 72.0526 10.7218 71.6533 9.61524C71.2729 8.56151 70.6883 7.59288 69.933 6.76469C69.1776 5.9365 68.2663 5.26496 67.2509 4.7884C66.2356 4.31184 65.1362 4.03961 64.0155 3.98725C62.8948 3.93488 61.7747 4.10341 60.7193 4.4832L57.3972 5.67858L35.2484 13.648L12.3703 21.8798L9.77742 22.8136C7.64628 23.5808 5.90754 25.1616 4.94351 27.2084C3.97948 29.2551 3.86905 31.6003 4.63649 33.7283C5.0358 34.8348 5.43529 35.9414 5.83499 37.0481L11.1683 51.8214L26.9973 95.668C33.4619 113.575 39.9265 131.482 46.3912 149.39C47.3458 152.035 48.3005 154.68 49.2554 157.324C50.024 159.452 51.6077 161.188 53.6581 162.151C55.7086 163.113 58.058 163.223 60.1897 162.456L62.544 161.609C62.6013 161.768 62.6587 161.928 62.7163 162.087C62.7776 162.256 62.8387 162.426 62.8996 162.595C62.956 162.751 63.0122 162.906 63.0684 163.062C63.1366 163.251 63.2046 163.439 63.2726 163.628C63.336 163.803 63.3992 163.978 63.4623 164.153L63.6555 164.688C63.7217 164.871 63.7878 165.054 63.8538 165.237C63.9172 165.413 63.9805 165.588 64.0438 165.764Z" fill="#EEDD7D"/>
<path d="M60.788 4.40933L9.67738 22.7996C7.56277 23.5606 5.83753 25.129 4.88114 27.1598C3.92476 29.1907 3.81559 31.5176 4.57759 33.6288L49.2735 157.438C50.0358 159.549 51.6068 161.271 53.6409 162.226C55.6751 163.181 58.0059 163.29 60.1206 162.529L111.231 144.139C113.346 143.378 115.071 141.81 116.028 139.779C116.984 137.748 117.093 135.421 116.331 133.31L71.6353 9.50071C70.873 7.38955 69.302 5.66713 67.2678 4.71232C65.2335 3.75752 62.9027 3.64853 60.788 4.40933Z" fill="#F2F6F6"/>
<path d="M75.0973 87.8081L65.8438 91.1547C59.8065 93.3382 53.1224 90.2047 50.9389 84.1674L47.4869 74.6225C47.2947 74.0912 46.7057 73.815 46.1744 74.0072L43.0147 75.1499C42.4834 75.3421 42.2072 75.9311 42.3994 76.4624L45.8514 86.0074C49.0501 94.8517 58.8458 99.4439 67.6902 96.2452L76.9483 92.8969C77.522 92.6895 77.8191 92.0556 77.6116 91.482L76.5216 88.4681C76.3064 87.9025 75.6709 87.6007 75.0973 87.8081Z" fill="#25282D"/>
<path d="M67.061 77.3479C69.715 76.3881 71.0883 73.4586 70.1285 70.8046C69.1686 68.1507 66.2391 66.7773 63.5852 67.7372C60.9312 68.697 59.5579 71.6265 60.5177 74.2805C61.4775 76.9344 64.4071 78.3078 67.061 77.3479Z" fill="#7AC361"/>
<path d="M60.788 4.40933L9.67738 22.7996C7.56277 23.5606 5.83753 25.129 4.88114 27.1598C3.92476 29.1907 3.81559 31.5176 4.57759 33.6288L49.2735 157.438C50.0358 159.549 51.6068 161.271 53.6409 162.226C55.6751 163.181 58.0059 163.29 60.1206 162.529L111.231 144.139C113.346 143.378 115.071 141.81 116.028 139.779C116.984 137.748 117.093 135.421 116.331 133.31L71.6353 9.50071C70.873 7.38955 69.302 5.66713 67.2678 4.71232C65.2335 3.75752 62.9027 3.64853 60.788 4.40933ZM114.133 133.894C114.417 134.681 114.543 135.516 114.504 136.351C114.465 137.186 114.261 138.006 113.904 138.762C113.548 139.519 113.046 140.198 112.426 140.761C111.807 141.324 111.083 141.76 110.295 142.043L59.3607 160.37C58.5727 160.653 57.7365 160.779 56.8997 160.74C56.063 160.701 55.2422 160.498 54.4842 160.142C53.7262 159.786 53.0459 159.284 52.482 158.666C51.9181 158.048 51.4818 157.324 51.1979 156.538L6.57714 32.9368C6.29316 32.1501 6.16715 31.3153 6.20637 30.4799C6.24559 29.6446 6.44927 28.8252 6.80572 28.0684C7.16216 27.3117 7.66444 26.6324 8.28384 26.0695C8.90324 25.5065 9.62763 25.0709 10.4157 24.7875L61.3496 6.46102C62.1376 6.17754 62.9738 6.05178 63.8105 6.09095C64.6472 6.13012 65.468 6.33343 66.226 6.68929C66.984 7.04514 67.6643 7.54656 68.2282 8.16493C68.7921 8.78329 69.2285 9.50649 69.5124 10.2932L114.133 133.894Z" fill="black"/>
</svg>
