<svg width="110" height="166" viewBox="0 0 110 166" fill="none" xmlns="http://www.w3.org/2000/svg">
<path d="M99.7612 65.322L103.819 48.9038C103.964 48.9399 104.089 49.0317 104.166 49.1593C104.243 49.2869 104.267 49.4398 104.231 49.5847L100.444 64.9096C100.408 65.0545 100.316 65.1793 100.188 65.2566C100.06 65.3339 99.9065 65.3574 99.7612 65.322Z" fill="#323232"/>
<path d="M25.2135 37.3633L27.8218 26.8097C27.6767 26.7741 27.5234 26.7975 27.3955 26.8746C27.2677 26.9517 27.1757 27.0764 27.1398 27.2212L24.8016 36.682C24.7658 36.8269 24.789 36.98 24.8663 37.1078C24.9435 37.2355 25.0684 37.3274 25.2135 37.3633Z" fill="#2D2D2D"/>
<path d="M22.1925 49.5851L24.8008 39.0315C24.7289 39.0138 24.6543 39.0104 24.5811 39.0215C24.508 39.0326 24.4377 39.058 24.3744 39.0962C24.311 39.1344 24.2559 39.1847 24.212 39.2442C24.1682 39.3037 24.1365 39.3712 24.1188 39.443L21.7806 48.9038C21.7448 49.0487 21.7681 49.2018 21.8453 49.3295C21.9225 49.4573 22.0474 49.5492 22.1925 49.5851Z" fill="#2D2D2D"/>
<path d="M12.2443 152.915L10.3252 152.442C6.93695 151.607 4.01967 149.463 2.2149 146.48C0.410124 143.498 -0.134381 139.923 0.701144 136.54C1.35493 133.894 2.00887 131.248 2.66292 128.603C7.21592 110.181 11.7689 91.7583 16.3219 73.336L27.4707 28.2277C27.7434 27.123 28.0162 26.0185 28.289 24.9141C28.3638 24.6292 28.5379 24.3803 28.78 24.2121C29.079 23.9659 29.3003 23.6387 29.4172 23.2698C29.9065 21.2896 30.3959 19.3094 30.8854 17.3291C30.9542 16.945 30.9117 16.5492 30.763 16.1884C30.628 15.9235 30.5906 15.6197 30.6576 15.3301L31.226 13.0302C31.4647 12.0642 31.7035 11.098 31.9423 10.1317C32.779 6.74918 34.927 3.83683 37.9141 2.03507C40.9012 0.23331 44.4828 -0.310347 47.8713 0.523634L50.0357 1.05703L73.5719 6.85396C81.1673 8.72493 88.7625 10.5959 96.3577 12.4669L99.1245 13.1477C102.513 13.9824 105.431 16.1268 107.236 19.1091C109.041 22.0914 109.585 25.6674 108.749 29.0504C108.51 30.0164 108.271 30.9825 108.032 31.9488L104.277 47.1461L93.1282 92.2564C88.5749 110.679 84.0219 129.101 79.4692 147.523C78.8154 150.169 78.1616 152.814 77.5076 155.46C76.6714 158.843 74.5234 161.756 71.5362 163.557C68.5489 165.359 64.9672 165.903 61.5786 165.068L58.8117 164.387L35.9507 158.756L12.2441 152.916C12.2886 152.736 12.3332 152.555 12.3777 152.375C12.4243 152.187 12.4708 151.998 12.5173 151.81L12.6537 151.26L12.7873 150.719L12.9309 150.137C12.9707 149.977 13.0103 149.816 13.0498 149.656L13.1792 149.133C13.2194 148.969 13.2599 148.806 13.3004 148.642L37.007 154.482L59.868 160.113L63.2859 160.955C65.4787 161.495 67.7964 161.143 69.7293 159.977C71.6623 158.811 73.0522 156.926 73.5935 154.737L75.6109 146.574C80.1639 128.152 84.717 109.729 89.27 91.3073C92.9862 76.2712 96.7023 61.2351 100.418 46.199L104.174 31.0017C104.456 29.8632 104.737 28.7247 105.019 27.5863C105.56 25.397 105.208 23.0828 104.039 21.1527C102.871 19.2227 100.983 17.8349 98.7903 17.2947L95.3726 16.4527L72.5882 10.8387L49.0523 5.04173L46.3846 4.38443C44.1917 3.84465 41.8738 4.19647 39.9406 5.36253C38.0074 6.52858 36.6173 8.41339 36.0758 10.6025C35.7946 11.741 35.5132 12.8795 35.2317 14.018C33.9796 19.0837 32.7276 24.1494 31.4756 29.2151C27.7594 44.2515 24.0433 59.2876 20.3271 74.3236C15.7741 92.7459 11.2211 111.168 6.66805 129.591C5.99569 132.311 5.3232 135.032 4.65057 137.753C4.1098 139.943 4.46215 142.257 5.63015 144.187C6.79815 146.117 8.68618 147.505 10.879 148.045L13.3008 148.642C13.2602 148.805 13.2198 148.969 13.1796 149.133L13.0502 149.656C13.0112 149.816 12.9716 149.976 12.9313 150.136L12.7877 150.718L12.654 151.259L12.5177 151.809C12.471 151.998 12.4245 152.186 12.3781 152.375C12.3333 152.554 12.2887 152.735 12.2443 152.915Z" fill="#EEDD7D"/>
<path d="M98.8898 17.2704L46.3089 4.31793C45.2316 4.05254 44.1127 4.00158 43.0157 4.16795C41.9188 4.33432 40.8654 4.71476 39.9158 5.28756C38.9661 5.86036 38.1387 6.61429 37.4809 7.50631C36.8231 8.39833 36.3478 9.41097 36.082 10.4864L4.60196 137.857C4.06521 140.029 4.41464 142.325 5.57341 144.239C6.73217 146.154 8.60534 147.531 10.7808 148.067L63.362 161.019C64.4392 161.285 65.5582 161.336 66.6551 161.169C67.752 161.003 68.8053 160.622 69.755 160.05C70.7046 159.477 71.5319 158.723 72.1897 157.831C72.8475 156.939 73.3229 155.926 73.5887 154.851L105.068 27.4802C105.334 26.4047 105.385 25.2876 105.219 24.1925C105.052 23.0974 104.671 22.0458 104.097 21.0977C103.523 20.1496 102.768 19.3237 101.875 18.667C100.981 18.0103 99.967 17.5357 98.8898 17.2704Z" fill="#F2F6F6"/>
<path d="M63.676 94.7105L54.1155 92.3819C47.8778 90.8627 44.0413 84.5557 45.5606 78.318L47.9625 68.4563C48.0962 67.9073 47.7581 67.3516 47.2092 67.2179L43.9446 66.4227C43.3957 66.289 42.8399 66.6271 42.7062 67.1761L40.3042 77.0378C38.0786 86.1756 43.701 95.4187 52.8389 97.6443L62.4043 99.974C62.9969 100.118 63.595 99.7546 63.7394 99.1619L64.4978 96.0479C64.6313 95.4578 64.2686 94.8548 63.676 94.7105Z" fill="#25282D"/>
<path d="M62.7641 81.5511C65.5062 82.2189 68.2704 80.5375 68.9382 77.7955C69.6061 75.0534 67.9247 72.2892 65.1826 71.6214C62.4406 70.9535 59.6764 72.635 59.0085 75.377C58.3407 78.119 60.0221 80.8832 62.7641 81.5511Z" fill="#7AC361"/>
<path d="M98.8898 17.2704L46.3089 4.31793C45.2316 4.05254 44.1127 4.00158 43.0157 4.16795C41.9188 4.33432 40.8654 4.71476 39.9158 5.28756C38.9661 5.86036 38.1387 6.61429 37.4809 7.50631C36.8231 8.39833 36.3478 9.41097 36.082 10.4864L4.60196 137.857C4.06521 140.029 4.41464 142.325 5.57341 144.239C6.73217 146.154 8.60534 147.531 10.7808 148.067L63.362 161.019C64.4392 161.285 65.5582 161.336 66.6551 161.169C67.752 161.003 68.8053 160.622 69.755 160.05C70.7046 159.477 71.5319 158.723 72.1897 157.831C72.8475 156.939 73.3229 155.926 73.5887 154.851L105.068 27.4802C105.334 26.4047 105.385 25.2876 105.219 24.1925C105.052 23.0974 104.671 22.0458 104.097 21.0977C103.523 20.1496 102.768 19.3237 101.875 18.667C100.981 18.0103 99.967 17.5357 98.8898 17.2704ZM71.4416 154.122C71.2416 154.932 70.8838 155.694 70.3888 156.365C69.8937 157.037 69.2711 157.604 68.5564 158.035C67.8417 158.466 67.0489 158.752 66.2234 158.877C65.3979 159.003 64.5557 158.964 63.745 158.764L11.3465 145.857C10.5358 145.657 9.77246 145.3 9.10002 144.806C8.42759 144.311 7.85922 143.69 7.42743 142.976C6.99564 142.263 6.70888 141.471 6.58348 140.647C6.45808 139.823 6.49652 138.982 6.6966 138.173L38.1242 11.0175C38.3242 10.2081 38.6819 9.44598 39.1769 8.77464C39.672 8.1033 40.2947 7.53589 41.0094 7.10481C41.7241 6.67374 42.5168 6.38744 43.3424 6.26226C44.1679 6.13708 45.0101 6.17547 45.8208 6.37525L98.2187 19.283C99.0294 19.4826 99.7928 19.8398 100.465 20.334C101.138 20.8282 101.706 21.4499 102.138 22.1634C102.57 22.8769 102.856 23.6683 102.982 24.4925C103.107 25.3167 103.069 26.1575 102.869 26.9668L71.4416 154.122Z" fill="black"/>
</svg>
