<svg width="181" height="45" viewBox="0 0 181 45" fill="none" xmlns="http://www.w3.org/2000/svg">
<g clip-path="url(#clip0_103_16610)">
<path d="M133.371 14.6587H128.758C128.207 14.6587 127.712 15.0299 127.566 15.5699L123.257 31.2862L123.246 31.3087C121.794 36.8212 120.613 38.0137 116.597 38.0137H115.472C111.332 38.0137 110.398 37.0687 108.812 31.2637L104.436 15.5587C104.289 15.0299 103.794 14.6587 103.254 14.6587H98.6419C98.2482 14.6587 97.8994 14.8387 97.6632 15.1424C97.4269 15.4462 97.3482 15.8399 97.4607 16.2224L102.163 33.1087C103.806 39.0937 106.179 44.9324 115.494 44.9324H116.619C126.036 44.9324 128.432 38.8237 129.951 33.0974L134.574 16.2224C134.676 15.8512 134.597 15.4574 134.361 15.1537C134.124 14.8387 133.764 14.6587 133.371 14.6587Z" fill="#25282D"/>
<path d="M58.9612 13.8823H46.4175C38.97 13.8823 32.9062 19.9461 32.9062 27.3936V30.6448C32.9062 38.4861 39.285 44.8648 47.1263 44.8648H64.7212C65.0925 44.8648 65.4525 44.7073 65.7 44.4261C65.9475 44.1448 66.06 43.7736 66.015 43.4023L65.4862 39.1161C65.4075 38.4636 64.845 37.9686 64.1812 37.9686H47.1263C44.685 37.9686 42.435 36.7536 41.0737 34.7623H58.95C64.6762 34.7623 69.4012 30.1836 69.48 24.5586C69.5137 21.7236 68.4337 19.0461 66.4425 17.0323C64.4512 14.9961 61.7962 13.8823 58.9612 13.8823ZM39.8138 27.4048C39.8138 23.7598 42.7725 20.8011 46.4175 20.8011H58.9612C60.9525 20.8011 62.5725 22.4211 62.5725 24.4123C62.5725 26.3023 61.0312 27.8436 59.1413 27.8436H39.8138V27.4048Z" fill="#25282D"/>
<path d="M97.6047 39.116C97.5259 38.4635 96.9634 37.9685 96.2997 37.9685H89.5497C85.3309 37.9685 81.8997 34.5372 81.8997 30.3185V21.5435H90.1684C90.5397 21.5435 90.8997 21.386 91.1472 21.1047C91.3947 20.8235 91.5072 20.4522 91.4622 20.081L90.9334 15.7947C90.8547 15.1422 90.2922 14.6472 89.6284 14.6472H81.8884V10.1697C81.8884 9.44974 81.3034 8.86475 80.5834 8.86475H76.2972C75.5772 8.86475 74.9922 9.44974 74.9922 10.1697V30.341C74.9922 38.3735 81.5284 44.8985 89.5497 44.8985H96.8284C97.1997 44.8985 97.5597 44.741 97.8072 44.4597C98.0547 44.1785 98.1672 43.8072 98.1222 43.436L97.6047 39.116Z" fill="#25282D"/>
<path d="M144.755 14.6138H140.469C139.749 14.6138 139.164 15.1988 139.164 15.9188V43.6613C139.164 44.3813 139.749 44.9663 140.469 44.9663H144.755C145.475 44.9663 146.06 44.3813 146.06 43.6613V15.9188C146.06 15.1988 145.475 14.6138 144.755 14.6138Z" fill="#25282D"/>
<path d="M142.606 0.0224609C139.614 0.0224609 137.184 2.45247 137.184 5.44497C137.184 8.43747 139.614 10.8675 142.606 10.8675C145.599 10.8675 148.029 8.43747 148.029 5.44497C148.029 2.46372 145.599 0.0224609 142.606 0.0224609Z" fill="#7AC361"/>
<path d="M18.3609 37.9685C12.0497 37.9685 6.93094 32.8498 6.93094 26.5385V9.93353C6.93094 9.33728 6.44719 8.85352 5.85094 8.85352H1.10343C0.507185 8.85352 0.0234375 9.33728 0.0234375 9.93353V26.5385C0.0234375 36.6748 8.23593 44.8873 18.3722 44.8873H28.9022C29.4984 44.8873 29.9822 44.4035 29.9822 43.8073L29.5097 39.0598C29.5097 38.4635 29.0259 37.9798 28.4297 37.9798H18.3609V37.9685Z" fill="#25282D"/>
<path d="M162.539 37.9685C168.85 37.9685 173.969 32.8498 173.969 26.5385V9.93353C173.969 9.33728 174.453 8.85352 175.049 8.85352H179.797C180.393 8.85352 180.877 9.33728 180.877 9.93353V26.5385C180.877 36.6748 172.664 44.8873 162.528 44.8873H151.998C151.402 44.8873 150.918 44.4035 150.918 43.8073L151.39 39.0598C151.39 38.4635 151.874 37.9798 152.47 37.9798H162.539V37.9685Z" fill="#25282D"/>
</g>
<defs>
<clipPath id="clip0_103_16610">
<rect width="180.9" height="45" fill="white"/>
</clipPath>
</defs>
</svg>
